<?xml version="1.0" encoding="UTF-8" standalone="no"?>
<svg width="16px" height="16px" viewBox="0 0 16 16" version="1.1" xmlns="http://www.w3.org/2000/svg" xmlns:xlink="http://www.w3.org/1999/xlink">
    <g stroke="none" stroke-width="1" fill="none" fill-rule="evenodd">
        <g transform="translate(-735.000000, -612.000000)" fill="#999999">
            <g transform="translate(601.000000, 604.000000)">
                <g transform="translate(0.000000, -0.000000)">
                    <g transform="translate(126.000000, 0.000000)">
                        <path d="M10.0535462,8 L21.9464538,8 C23.0759042,8 24,8.83579331 24,10.0535462 L24,21.9464538 C24,23.1642067 23.0759042,24 21.9464538,24 L10.0535462,24 C8.9240958,24 8,23.1642067 8,21.9464538 L8,10.0535462 C8,8.83579331 8.9240958,8 10.0535462,8 Z M19.6652339,9.99835897 C19.2992415,9.99835897 19,10.3054824 19,10.6811149 L19,12.315603 C19,12.6912356 19.2992415,12.998359 19.6652339,12.998359 L21.3355247,12.998359 C21.7007585,12.998359 22,12.6912356 22,12.315603 L22,10.6811149 C22,10.3054824 21.7007585,9.99835897 21.3355247,9.99835897 L19.6652339,9.99835897 Z M22,14.9799805 L20.7692308,14.9799805 C20.9021538,15.4142369 20.974359,15.8749548 20.974359,16.3510574 C20.974359,19.0097241 18.7499487,21.1650061 16.006359,21.1650061 C13.2627692,21.1650061 11.038359,19.0097241 11.038359,16.3510574 C11.038359,15.8749548 11.1105641,15.4142369 11.2434872,14.9799805 L10,14.9799805 L9.86451282,21.3645128 C9.86451282,21.7138462 10.1498462,22 10.5,22 L21.3647179,22 C21.7148718,22 22,21.7138462 22,21.3645128 L22,14.9799805 Z M15.9999041,13 C14.3435154,13 13,14.3431153 13,16 C13,17.6568847 14.3435154,19 15.9999041,19 C17.6564846,19 19,17.6568847 19,16 C19,14.3431153 17.6572515,13 15.9999041,13 Z"></path>
                    </g>
                </g>
            </g>
        </g>
    </g>
</svg>