<?xml version="1.0" encoding="UTF-8" standalone="no"?>
<svg width="64px" height="64px" viewBox="0 0 64 64" version="1.1" xmlns="http://www.w3.org/2000/svg" xmlns:xlink="http://www.w3.org/1999/xlink">
    <!-- Generator: Sketch 42 (36781) - http://www.bohemiancoding.com/sketch -->
    <title>bell</title>
    <desc>Created with Sketch.</desc>
    <defs>
        <polygon id="path-1" points="8.47032947e-22 0.0741545011 8.47032947e-22 38.803625 63.7125421 38.803625 63.7125421 0.0741545011 0 0.0741545011"></polygon>
    </defs>
    <g stroke="none" stroke-width="1" fill="none" fill-rule="evenodd">
        <g transform="translate(-217.000000, -50.000000)">
            <g transform="translate(217.000000, 50.000000)">
                <path d="M55.704625,50.194375 C55.704625,51.200375 54.886125,52.01875 53.88025,52.01875 L9.8325,52.01875 C8.826625,52.01875 8.008125,51.200375 8.008125,50.194375 L8.008125,49.5205 C8.008125,48.514625 8.826625,47.696125 9.8325,47.696125 C13.346875,47.696125 16.206,44.837 16.206,41.32275 L16.206,29.064875 C16.206,20.43525 23.22675,13.4145 31.856375,13.4145 C40.486,13.4145 47.50675,20.43525 47.50675,29.064875 L47.50675,41.322875 C47.50675,41.61975 47.52875,41.9115 47.56825,42.19775 L39.771625,42.19775 C38.948375,42.19775 38.281125,42.865125 38.281125,43.688375 C38.281125,44.5115 38.948375,45.178875 39.771625,45.178875 L48.81,45.178875 C49.975375,46.707375 51.814,47.69625 53.88025,47.69625 C54.886125,47.69625 55.704625,48.51475 55.704625,49.52075 L55.704625,50.194375 Z M36.327875,56.54725 C36.327875,59.012875 34.322,61.018875 31.856375,61.018875 C29.39075,61.018875 27.38475,59.012875 27.38475,56.54725 L27.38475,54.999875 L36.327875,54.999875 L36.327875,56.54725 Z M28.130125,6.707125 C28.130125,4.6525 29.801625,2.980875 31.856375,2.980875 C33.911,2.980875 35.582625,4.6525 35.582625,6.707125 C35.582625,8.761875 33.911,10.4335 31.856375,10.4335 C29.801625,10.4335 28.130125,8.761875 28.130125,6.707125 Z M53.88025,44.71525 C52.009625,44.71525 50.48775,43.1935 50.48775,41.322875 L50.48775,29.064875 C50.48775,20.53725 44.728625,13.329875 36.895625,11.1265 C37.93275,9.945375 38.563625,8.399 38.563625,6.707375 C38.563625,3.008875 35.55475,0 31.856375,0 C28.158,0 25.149,3.008875 25.149,6.707375 C25.149,8.399 25.78,9.945375 26.817125,11.1265 C18.984125,13.329875 13.224875,20.53725 13.224875,29.064875 L13.224875,41.322875 C13.224875,43.1935 11.703125,44.71525 9.8325,44.71525 C7.182875,44.71525 5.027125,46.871 5.027125,49.52075 L5.027125,50.1945 C5.027125,52.84425 7.182875,55 9.8325,55 L24.40375,55 L24.40375,56.547375 C24.40375,60.65675 27.747,64 31.856375,64 C35.96575,64 39.308875,60.65675 39.308875,56.547375 L39.308875,54.999875 L53.88025,54.999875 C56.529875,54.999875 58.685625,52.844125 58.685625,50.194375 L58.685625,49.5205 C58.685625,46.871 56.529875,44.71525 53.88025,44.71525 L53.88025,44.71525 Z" fill="#3785BA"></path>
                <g transform="translate(0.000000, 6.375000)">
                    <mask id="mask-2" fill="white">
                        <use xlink:href="#path-1"></use>
                    </mask>
                    <g></g>
                    <path d="M33.138625,35.822625 L32.989625,35.822625 C32.166375,35.822625 31.499125,36.49 31.499125,37.313125 C31.499125,38.136375 32.166375,38.803625 32.989625,38.803625 L33.138625,38.803625 C33.961875,38.803625 34.629125,38.136375 34.629125,37.313125 C34.629125,36.49 33.961875,35.822625 33.138625,35.822625" fill="#3785BA" mask="url(#mask-2)"></path>
                    <path d="M63.70325,19.126375 C62.932,12.197 59.8375,5.593875 54.99,0.533625 C54.420625,-0.06075 53.477125,-0.081125 52.882625,0.488375 C52.288125,1.05775 52.26775,2.00125 52.83725,2.59575 C57.23425,7.186 60.041125,13.173875 60.740375,19.45625 C60.82525,20.21825 61.4705,20.782 62.219875,20.782 C62.274875,20.782 62.330625,20.778875 62.38675,20.772625 C63.205,20.6815 63.794375,19.944625 63.70325,19.126375" fill="#3785BA" mask="url(#mask-2)"></path>
                    <path d="M54.81525,20.11575 C54.9,20.877875 55.54525,21.441625 56.294625,21.441625 C56.349625,21.441625 56.405375,21.4385 56.4615,21.432125 C57.279625,21.341125 57.869,20.604 57.777875,19.785875 C57.150625,14.150375 54.6315,8.777875 50.684875,4.65775 C50.1155,4.063375 49.172,4.043 48.577375,4.6125 C47.983,5.181875 47.9625,6.125375 48.532125,6.719875 C52.028375,10.37 54.259875,15.1275 54.81525,20.11575" fill="#3785BA" mask="url(#mask-2)"></path>
                    <path d="M10.83,0.488375 C10.2355,-0.081125 9.292,-0.060875 8.7225,0.533625 C3.875125,5.594 0.78075,12.197 0.00925,19.126375 C-0.08175,19.9445 0.507625,20.6815 1.32575,20.772625 C1.38175,20.778875 1.437375,20.782 1.4925,20.782 C2.24175,20.782 2.887125,20.21825 2.972,19.45625 C3.671375,13.173875 6.478125,7.186 10.875125,2.59575 C11.44475,2.001375 11.424375,1.057875 10.83,0.488375" fill="#3785BA" mask="url(#mask-2)"></path>
                </g>
                <path d="M7.25125,27.807375 C7.30725,27.813625 7.362875,27.81675 7.418,27.81675 C8.167375,27.81675 8.81275,27.253 8.8975,26.490875 C9.452875,21.5025 11.684125,16.745125 15.180625,13.095 C15.750125,12.500625 15.729875,11.557125 15.135375,10.987625 C14.540875,10.418125 13.597375,10.438375 13.027875,11.032875 C9.081125,15.153 6.562,20.525625 5.934875,26.161 C5.84375,26.97925 6.43325,27.71625 7.25125,27.807375" fill="#3785BA"></path>
            </g>
        </g>
    </g>
</svg>