<?xml version="1.0" encoding="UTF-8" standalone="no"?>
<svg width="28px" height="30px" viewBox="0 0 28 30" version="1.1" xmlns="http://www.w3.org/2000/svg" xmlns:xlink="http://www.w3.org/1999/xlink">
    <defs>
        <polygon id="path-1" points="28.000625 29.9625 0.0375 29.9625 0.0375 0 14.0190625 0 28.000625 0 28.000625 29.9625"></polygon>
    </defs>
    <g stroke="none" stroke-width="1" fill="none" fill-rule="evenodd">
        <g transform="translate(-506.000000, -355.000000)">
            <g transform="translate(506.000000, 355.000000)">
                <g>
                    <g>
                        <mask id="mask-2" fill="white">
                            <use xlink:href="#path-1"></use>
                        </mask>
                        <g></g>
                        <path d="M27.5,1.999375 L23.99875,1.999375 L23.99875,0.500625 C23.99875,0.224375 23.776875,0 23.50125,0 L20,0 C19.724375,0 19.499375,0.224375 19.499375,0.500625 L19.499375,1.999375 L8.50125,1.999375 L8.50125,0.500625 C8.50125,0.224375 8.27625,0 8.000625,0 L4.499375,0 C4.22375,0 3.99875,0.224375 3.99875,0.500625 L3.99875,1.999375 L0.500625,1.999375 C0.224375,1.999375 0,2.224375 0,2.5 L0,29.499375 C0,29.775625 0.224375,30 0.500625,30 L27.5,30 C27.775625,30 28.000625,29.775625 28.000625,29.499375 L28.000625,2.5 C28.000625,2.224375 27.775625,1.999375 27.5,1.999375 Z M20.500625,3.99875 L23.000625,3.99875 L23.000625,1.00125 L20.500625,1.00125 L20.500625,3.99875 Z M5,3.99875 L7.5,3.99875 L7.5,1.00125 L5,1.00125 L5,3.99875 Z M1.00125,3.000625 L3.99875,3.000625 L3.99875,4.499375 C3.99875,4.775625 4.22375,5 4.499375,5 L8.000625,5 C8.27625,5 8.50125,4.775625 8.50125,4.499375 L8.50125,3.000625 L19.499375,3.000625 L19.499375,4.499375 C19.499375,4.775625 19.724375,5 20,5 L23.50125,5 C23.776875,5 23.99875,4.775625 23.99875,4.499375 L23.99875,3.000625 L26.999375,3.000625 L26.999375,7.5 L1.00125,7.5 L1.00125,3.000625 Z M1.00125,28.99875 L26.999375,28.99875 L26.999375,8.50125 L1.00125,8.50125 L1.00125,28.99875 Z" fill="#666666" mask="url(#mask-2)"></path>
                    </g>
                    <path d="M17.9992928,11.49875 L4.499375,11.49875 L4.499375,26.00125 L23.499375,26.00125 L23.499375,11.49875 L17.9992928,11.49875 Z M14.4983883,16.00125 L17.9992928,16.00125 L17.9992928,12.5 L14.4983883,12.5 L14.4983883,16.00125 Z M14.4983883,20.500625 L17.9992928,20.500625 L17.9992928,16.999375 L14.4983883,16.999375 L14.4983883,20.500625 Z M9.99945723,20.500625 L13.5003617,20.500625 L13.5003617,16.999375 L9.99945723,16.999375 L9.99945723,20.500625 Z M9.99945723,16.00125 L13.5003617,16.00125 L13.5003617,12.5 L9.99945723,12.5 L9.99945723,16.00125 Z M5.5005262,16.00125 L8.99830603,16.00125 L8.99830603,12.5 L5.5005262,12.5 L5.5005262,16.00125 Z M5.5005262,20.500625 L8.99830603,20.500625 L8.99830603,16.999375 L5.5005262,16.999375 L5.5005262,20.500625 Z M5.5005262,25 L8.99830603,25 L8.99830603,21.49875 L5.5005262,21.49875 L5.5005262,25 Z M9.99945723,25 L13.5003617,25 L13.5003617,21.49875 L9.99945723,21.49875 L9.99945723,25 Z M14.4983883,25 L17.9992928,25 L17.9992928,21.49875 L14.4983883,21.49875 L14.4983883,25 Z M18.9973193,25 L22.4982238,25 L22.4982238,21.49875 L18.9973193,21.49875 L18.9973193,25 Z M18.9973193,20.500625 L22.4982238,20.500625 L22.4982238,16.999375 L18.9973193,16.999375 L18.9973193,20.500625 Z M18.9973193,16.00125 L22.4982238,16.00125 L22.4982238,12.5 L18.9973193,12.5 L18.9973193,16.00125 Z" fill="#666666"></path>
                </g>
            </g>
        </g>
    </g>
</svg>