<?xml version="1.0" encoding="UTF-8" standalone="no"?>
<svg width="1920px" height="122px" viewBox="0 0 1920 122" version="1.1" xmlns="http://www.w3.org/2000/svg" xmlns:xlink="http://www.w3.org/1999/xlink">
    <!-- Generator: Sketch 42 (36781) - http://www.bohemiancoding.com/sketch -->
    <title>Combined Shape</title>
    <desc>Created with Sketch.</desc>
    <defs>
        <rect id="path-1" x="0" y="0" width="1920" height="122"></rect>
    </defs>
    <g stroke="none" stroke-width="1" fill="none" fill-rule="evenodd">
        <g>
            <mask id="mask-2" fill="white">
                <use xlink:href="#path-1"></use>
            </mask>
            <use fill="#FFFFFF" xlink:href="#path-1"></use>
            <path d="M898.738538,76.310504 C898.871451,76.7169183 898.954,77.1335192 898.954,77.379 L896.743,77.307 L887.205,77.298 C887.244,77.434 887.272,77.61 887.272,77.854 C887.272,78.299 887,78.782 885.695,78.782 C884.986,78.782 884.262,78.173 884.262,77.426 L884.262,74.779 L881.824,74.779 C881.115,74.779 880.391,74.17 880.391,73.423 L880.391,69.721 L869.357,69.905 L869.357,71.954 C869.357,72.399 869.086,72.882 868.58,72.882 L862.24,72.882 C861.531,72.882 860.807,72.273 860.807,71.526 L860.807,62.134 L853.917,62.26 L853.917,63.313 C853.917,63.759 853.646,64.242 853.14,64.242 L843.734,64.242 C843.025,64.242 842.301,63.633 842.301,62.767 L826.802,62.767 L826.802,69.003 C826.802,69.449 826.53,69.932 826.024,69.932 L821.785,69.932 C821.076,69.932 820.352,69.323 820.352,68.576 L820.352,58.044 C820.012,57.796 819.768,57.416 819.768,56.985 L818.56,56.455 C817.851,56.455 817.126,55.846 817.126,55.099 L817.126,34.047 L792.94,34.047 L792.94,54.884 C792.94,55.329 792.668,55.812 792.162,55.812 C792.162,55.812 789.885,55.86 789.788,55.874 L789.788,57.834 C789.788,58.279 789.517,58.762 788.067,58.609 L788.067,65.842 C788.067,66.288 787.796,66.771 786.43,66.548 C786.492,66.714 786.562,67.046 786.562,67.667 L786.562,70.478 C786.562,70.923 786.29,71.406 784.126,71.406 C783.417,71.406 782.692,70.797 782.692,70.05 L781.974,31.578 C781.265,31.578 780.54,30.969 780.54,30.222 L780.54,27.152 L761.531,27.152 C760.822,27.152 760.098,26.543 760.098,25.796 L760.098,15.771 L754,15.771 C753.291,15.771 752.566,15.163 752.566,14.416 L752.566,13.243 C752.566,13.243 746.711,13.27 746.535,13.283 L746.535,15.476 C746.535,15.921 746.264,16.404 745.758,16.404 C744.296,16.404 744.174,16.761 744.167,15.97 L744.167,47.508 C744.167,47.953 743.896,48.436 741.948,48.436 C741.239,48.436 740.515,47.827 740.515,47.08 L740.227,35.792 C739.518,35.792 738.793,35.183 738.793,34.436 L738.793,26.624 C738.793,27.42 737.718,24.782 737.718,23.78 L736.568,9.872 C735.859,9.872 735.135,9.263 735.135,8.516 L735.135,2.285 C735.135,2.285 725.823,2.292 725.662,2.301 L725.662,7.889 C725.662,8.334 725.391,8.817 724.885,8.817 C723.639,8.817 723.517,9.07 723.51,8.578 L723.51,10.84 C723.51,11.285 723.238,11.768 722.732,11.768 C721.997,11.768 721.671,11.563 721.539,11.405 C721.558,11.499 721.572,11.632 721.572,11.826 L721.572,20.323 C721.572,20.768 721.301,21.251 720.795,21.251 L697.687,21.251 L697.687,30.438 C697.687,30.883 697.415,31.366 696.909,31.366 L694.606,31.366 C693.898,31.366 693.173,30.757 693.173,30.01 L693.173,29.47 C693.173,29.47 688.76,29.456 688.648,29.58 L688.648,31.492 C688.648,31.938 688.377,32.42 687.871,32.42 L683.847,32.42 C683.138,32.42 682.413,31.812 682.413,31.064 L682.413,27.573 L678.036,27.573 C677.327,27.573 676.603,26.964 676.603,26.217 L676.603,23.991 C676.603,23.991 671.777,23.975 671.648,24.027 L671.648,25.802 C671.648,26.248 671.376,26.73 670.87,26.73 L659.598,26.73 L659.598,58.255 C659.598,58.701 659.326,59.184 658.82,59.184 L653.313,59.184 C653.338,59.36 653.356,59.602 653.356,59.941 L653.356,61.627 C653.356,62.072 653.084,62.555 652.578,62.555 C652.578,62.555 650.233,62.607 650.13,62.621 L650.13,64.683 C650.13,65.128 649.858,65.611 649.353,65.611 L646.505,65.611 C645.796,65.611 645.071,65.002 645.071,64.255 L643.863,34.047 C643.154,34.047 642.43,33.438 642.43,32.691 L642.43,28.876 L633.203,29.084 L633.203,43.293 C633.203,43.739 632.932,44.222 632.426,44.222 L622.154,44.222 L622.154,48.562 C622.154,49.007 621.883,49.49 619.662,49.49 C618.953,49.49 618.229,48.881 618.229,48.134 L618.229,28.876 L610.763,28.876 L610.763,31.395 C610.763,31.84 610.491,32.323 609.985,32.323 C609.985,32.323 607.41,32.353 607.241,32.367 L607.241,58.543 C607.241,58.988 606.97,59.471 606.464,59.471 L590.18,59.471 C589.471,59.471 588.746,58.862 588.746,58.115 L588.746,54.732 L585.339,54.732 C584.63,54.732 583.905,54.123 583.905,53.376 L583.905,49.129 L580.94,49.129 C580.231,49.129 579.506,48.521 579.506,47.773 L579.506,36.632 C579.506,36.632 571.69,36.58 571.504,36.512 C571.558,36.666 571.599,36.886 571.599,37.204 L571.599,40.444 C571.599,40.889 571.328,41.372 570.822,41.372 L553.997,41.372 L553.997,58.543 C553.997,58.988 553.726,59.471 552.148,59.471 C551.852,59.471 551.557,59.361 551.31,59.184 L547.057,59.184 C546.347,59.184 545.623,58.575 545.623,57.828 L545.623,53.439 L536.055,53.439 C535.346,53.439 534.622,52.83 534.622,52.083 L534.622,41.372 L506.473,41.372 L506.473,54.665 C506.473,55.11 506.202,55.593 505.697,55.593 L501.732,55.593 C501.023,55.593 500.299,54.984 500.299,54.237 L498.652,34.909 C497.942,34.909 497.218,34.3 497.218,33.553 L497.218,28.876 C497.218,28.876 491.104,28.855 490.993,28.825 C491.039,29.001 491.072,29.242 491.072,29.584 L491.072,33.119 C491.072,33.564 490.801,34.047 490.295,34.047 L485.351,34.047 L485.351,53.804 C485.351,54.249 485.08,54.732 482.717,54.732 C482.713,54.877 482.71,55.064 482.71,55.303 L482.71,58.543 C482.71,60.12 480.501,59.391 480.501,58.115 C480.5,53.684 480.499,49.252 480.498,44.82 L458.068,44.82 L458.068,55.958 C458.068,56.403 457.797,56.886 457.292,56.886 L451.028,56.886 L451.028,61.129 C451.028,61.574 450.757,62.057 450.252,62.057 L447.106,62.057 C447.091,62.225 447.066,62.534 447.066,63.084 L447.066,64.146 C447.066,64.591 446.795,65.074 445.406,65.074 C444.697,65.074 443.973,64.465 443.973,63.718 C443.973,61.641 444.392,62.07 443.122,60.826 C442.63,60.344 441.807,59.787 441.603,59.075 C441.169,57.564 441.386,55.609 441.499,53.87 L429.906,53.87 L429.906,65.438 C429.906,65.884 429.635,66.367 428.246,66.367 C427.536,66.367 426.812,65.758 426.812,65.011 L426.812,63.351 L423.844,63.351 C423.135,63.351 422.411,62.742 422.411,61.995 L422.411,28.876 L420.324,28.876 C419.615,28.876 418.891,28.267 418.891,27.52 L418.891,19.396 L416.364,19.396 C415.655,19.396 414.931,18.787 414.931,18.04 L414.931,14.655 L411.083,14.655 C410.374,14.655 409.649,14.046 409.649,13.299 L409.649,10.732 L400.864,10.726 L400.864,16.743 C400.864,17.188 400.593,17.671 400.087,17.671 L396.442,17.659 C396.454,17.778 396.462,17.911 396.462,18.081 L396.462,24.069 C396.462,24.515 396.191,24.998 393.822,24.998 L393.822,49.472 C393.822,49.917 393.551,50.4 391.282,50.4 C390.573,50.4 389.849,49.791 389.849,49.044 L389.849,45.682 L382.82,45.682 L382.82,51.648 C382.82,52.094 382.549,52.577 382.044,52.577 L378.08,52.577 C377.37,52.577 376.646,51.968 376.646,51.221 L376.651,32.746 C376.567,32.692 376.46,32.605 376.32,32.468 C375.734,31.894 375.148,31.319 374.562,30.744 C374.088,30.28 374.007,29.845 374.007,29.212 L374.007,21.119 C374.007,21.119 358.696,21.12 358.618,21.121 L358.618,26.655 C358.618,27.1 358.347,27.583 357.842,27.583 C357.842,27.583 351.323,27.618 351.138,27.631 L351.138,39.583 C351.138,40.028 350.867,40.511 349.918,40.511 C349.208,40.511 348.484,39.902 348.484,39.155 L348.484,37.926 L343.859,37.887 C343.896,38.02 343.918,38.347 343.795,39.081 C343.656,39.924 343.516,40.766 343.376,41.609 C342.969,44.058 343.357,46.92 343.357,49.404 L343.357,70.609 C343.357,71.054 343.086,71.537 342.581,71.537 L336.717,71.537 C336.007,71.537 335.283,70.928 335.283,70.181 L335.283,41.804 L332.315,41.804 C331.606,41.804 330.882,41.195 330.882,40.448 L330.882,38.787 C330.882,38.787 323.51,38.72 323.314,38.641 C323.371,38.794 323.416,39.023 323.416,39.358 L323.416,42.599 C323.416,43.044 323.145,43.527 322.639,43.527 L317.255,43.527 L317.255,50.289 C317.255,50.734 316.984,51.217 316.105,51.217 C315.396,51.217 314.671,50.608 314.671,49.861 L314.671,47.836 L311.924,47.836 C311.915,48.007 311.906,48.251 311.906,48.599 L311.906,50.289 C311.906,50.734 311.635,51.217 311.13,51.217 C311.13,51.217 303.659,51.198 303.551,51.169 C303.588,51.331 303.614,51.542 303.614,51.83 L303.614,53.804 L310.473,53.804 C311.182,53.804 311.906,54.413 311.906,55.16 L311.906,61.991 C311.906,62.437 311.635,62.919 311.096,63.098 L311.096,70.178 C311.096,70.624 310.825,71.106 310.319,71.106 L298.872,71.106 C298.163,71.106 297.439,70.498 297.439,69.751 L297.439,62.919 L294.033,62.919 C293.323,62.919 292.599,62.311 292.599,61.563 L292.599,53.11 C292.599,54.112 292.218,53.099 291.675,52.567 C290.138,51.062 290.414,48.696 290.561,46.544 L281.611,46.544 L281.611,58.974 C281.611,59.419 281.34,59.902 280.835,59.902 L270.611,60.139 L270.611,67.593 C270.611,68.038 270.34,68.521 269.835,68.521 C265.693,68.521 260.828,69.289 256.77,68.503 C255.996,68.354 255.499,67.052 254.634,66.43 L244.433,66.423 L244.349487,66.372 L216.473,66.372 L216.473,79.665 C216.473,80.11 216.202,80.593 215.697,80.593 L211.732,80.593 C211.023,80.593 210.299,79.984 210.299,79.237 L208.652,59.909 C207.942,59.909 207.218,59.3 207.218,58.553 L207.218,53.876 C207.218,53.876 201.104,53.855 200.993,53.825 C201.039,54.001 201.072,54.242 201.072,54.584 L201.072,58.119 C201.072,58.564 200.801,59.047 200.295,59.047 L195.351,59.047 L195.351,78.804 C195.351,79.249 195.08,79.732 192.717,79.732 C192.713,79.877 192.71,80.064 192.71,80.303 L192.71,83.543 C192.71,85.12 190.501,84.391 190.501,83.115 C190.5,78.684 190.499,74.252 190.498,69.82 L168.068,69.82 L168.068,80.958 C168.068,81.403 167.797,81.886 167.292,81.886 L161.028,81.886 L161.028,86.129 C161.028,86.574 160.757,87.057 160.252,87.057 L157.106,87.057 C157.091,87.225 157.066,87.534 157.066,88.084 L157.066,89.146 C157.066,89.591 156.795,90.074 155.406,90.074 C154.697,90.074 153.973,89.465 153.973,88.718 C153.973,86.641 154.392,87.07 153.122,85.826 C152.63,85.344 151.807,84.787 151.603,84.075 C151.169,82.564 151.386,80.609 151.499,78.87 L139.906,78.87 L139.906,90.438 C139.906,90.884 139.635,91.367 138.246,91.367 C137.536,91.367 136.812,90.758 136.812,90.011 L136.812,88.351 L133.844,88.351 C133.135,88.351 132.411,87.742 132.411,86.995 L132.411,53.876 L130.324,53.876 C129.615,53.876 128.891,53.267 128.891,52.52 L128.891,44.396 L126.364,44.396 C125.655,44.396 124.931,43.787 124.931,43.04 L124.931,39.655 L121.083,39.655 C120.374,39.655 119.649,39.046 119.649,38.299 L119.649,35.732 L110.864,35.726 L110.864,41.743 C110.864,42.188 110.593,42.671 110.087,42.671 L106.442,42.659 C106.454,42.778 106.462,42.911 106.462,43.081 L106.462,49.069 C106.462,49.515 106.191,49.998 103.822,49.998 L103.822,74.472 C103.822,74.917 103.551,75.4 101.282,75.4 C100.573,75.4 99.849,74.791 99.849,74.044 L99.849,70.682 L92.82,70.682 L92.82,76.648 C92.82,77.094 92.549,77.577 92.044,77.577 L88.08,77.577 C87.37,77.577 86.646,76.968 86.646,76.221 L86.651,57.746 C86.567,57.692 86.46,57.605 86.32,57.468 C85.734,56.894 85.148,56.319 84.562,55.744 C84.088,55.28 84.007,54.845 84.007,54.212 L84.007,46.119 C84.007,46.119 68.696,46.12 68.618,46.121 L68.618,51.655 C68.618,52.1 68.347,52.583 67.842,52.583 C67.842,52.583 61.323,52.618 61.138,52.631 L61.138,64.583 C61.138,65.028 60.867,65.511 59.918,65.511 C59.208,65.511 58.484,64.902 58.484,64.155 L58.484,62.926 L53.859,62.887 C53.896,63.02 53.918,63.347 53.795,64.081 C53.656,64.924 53.516,65.766 53.376,66.609 C52.969,69.058 53.357,71.92 53.357,74.404 L53.357,95.609 C53.357,96.054 53.086,96.537 52.581,96.537 L46.717,96.537 C46.007,96.537 45.283,95.928 45.283,95.181 L45.283,66.804 L42.315,66.804 C41.606,66.804 40.882,66.195 40.882,65.448 L40.882,63.787 C40.882,63.787 33.51,63.72 33.314,63.641 C33.371,63.794 33.416,64.023 33.416,64.358 L33.416,67.599 C33.416,68.044 33.145,68.527 32.639,68.527 L27.255,68.527 L27.255,75.289 C27.255,75.734 26.984,76.217 26.105,76.217 C25.396,76.217 24.671,75.608 24.671,74.861 L24.671,72.836 L21.924,72.836 C21.915,73.007 21.906,73.251 21.906,73.599 L21.906,75.289 C21.906,75.734 21.635,76.217 21.13,76.217 C21.13,76.217 13.659,76.198 13.551,76.169 C13.588,76.331 13.614,76.542 13.614,76.83 L13.614,78.804 L20.473,78.804 C21.182,78.804 21.906,79.413 21.906,80.16 L21.906,86.991 C21.906,87.437 21.635,87.919 21.096,88.098 L21.096,95.178 C21.096,95.624 20.825,96.106 20.319,96.106 L8.872,96.106 C8.163,96.106 7.439,95.498 7.439,94.751 L7.439,87.919 L4.033,87.919 C3.323,87.919 2.599,87.311 2.599,86.563 L2.599,78.11 C2.599,79.112 2.218,78.099 1.675,77.567 C0.138,76.062 0.414,73.696 0.561,71.544 L-8.389,71.544 L-8.389,83.974 C-8.389,84.419 -8.66,84.902 -9.165,84.902 L-19.389,85.139 L-19.389,92.593 C-19.389,93.038 -19.66,93.521 -20.165,93.521 C-24.307,93.521 -29.172,94.289 -33.23,93.503 C-34.004,93.354 -34.725,92.42 -35.59,91.798 L-45.791,91.791 L-45.791,111.237 C-46.527,111.351 -47.264,111.47 -48,111.591 L-48,90.442 C-48,89.997 -47.729,89.514 -47.224,89.514 L-36.247,89.514 C-35.483,89.514 -34.88,89.438 -34.294,90.012 C-33.553,90.737 -32.153,91.237 -33.516,91.237 L-21.599,91 L-21.599,83.546 C-21.599,83.101 -21.328,82.618 -20.823,82.618 L-10.599,82.618 L-10.599,70.188 C-10.599,69.743 -10.328,69.26 -9.822,69.26 L1.396,69.26 C2.105,69.26 2.829,69.869 2.829,70.616 L2.829,76.254 C2.829,75.478 4.523,77.271 4.761,78.101 C5.383,80.273 4.997,83.167 4.856,85.635 L8.215,85.635 C8.924,85.635 9.648,86.244 9.648,86.991 L9.648,93.822 L18.886,93.826 L18.886,86.563 C18.886,86.118 19.157,85.635 19.696,85.643 L19.696,81.088 L12.838,81.088 C12.128,81.088 11.404,80.479 11.404,79.732 L11.404,74.861 C11.404,74.416 11.675,73.933 12.181,73.933 L19.696,73.933 L19.696,71.48 C19.696,71.035 19.967,70.552 20.473,70.552 L25.045,70.552 L25.045,67.171 C25.045,66.726 25.316,66.243 25.821,66.243 L31.206,66.243 L31.206,62.431 C31.206,61.985 31.477,61.502 31.982,61.502 L41.658,61.502 C42.368,61.502 43.092,62.111 43.092,62.858 L43.092,64.52 L46.06,64.52 C46.769,64.52 47.493,65.128 47.493,65.876 L47.493,94.253 L51.147,94.253 L51.147,80.669 C51.147,74.124 50.86,67.744 51.932,61.292 C51.989,60.946 52.331,60.642 52.685,60.642 L58.928,60.642 L58.928,51.227 C58.928,50.782 59.199,50.299 59.705,50.299 L66.402,50.299 C66.406,50.17 66.408,50.021 66.408,49.831 L66.408,44.763 C66.408,44.317 66.679,43.834 67.185,43.834 L84.784,43.834 C85.493,43.834 86.217,44.443 86.217,45.19 L86.217,54.616 C86.538,54.93 86.857,55.244 87.178,55.558 C87.618,55.989 88.058,56.42 88.497,56.851 C88.89,57.235 88.856,57.778 88.856,58.275 C88.856,58.275 90.554,75.309 90.628,75.331 C90.618,75.226 90.61,75.108 90.61,74.962 L90.61,69.326 C90.61,68.881 90.881,68.398 91.387,68.398 L100.625,68.398 C100.982,68.398 101.342,68.552 101.612,68.801 L101.612,48.642 C101.612,48.196 101.883,47.713 102.389,47.713 C103.943,47.713 104.252,47.214 104.252,48.471 L104.252,41.315 C104.252,40.87 104.523,40.387 105.029,40.387 L108.669,40.398 C108.66,40.297 108.654,40.185 108.654,40.048 L108.654,34.376 C108.654,33.931 108.925,33.448 109.43,33.448 L120.426,33.448 C121.135,33.448 121.859,34.057 121.859,34.804 L121.859,37.371 L125.707,37.371 C126.417,37.371 127.141,37.98 127.141,38.727 L127.141,42.111 L129.667,42.111 C130.377,42.111 131.101,42.72 131.101,43.467 L131.101,51.592 L133.187,51.592 C133.897,51.592 134.621,52.201 134.621,52.948 L134.621,86.066 L137.696,86.078 L137.696,77.514 C137.696,77.068 137.967,76.585 138.472,76.585 L152.331,76.585 C153.04,76.585 153.764,77.194 153.764,77.941 L153.764,83.656 C153.835,83.73 153.922,83.83 154.033,83.967 C154.463,84.389 154.803,84.735 155.079,85.049 C155.21,84.887 155.393,84.773 155.633,84.773 C155.633,84.773 158.745,84.78 158.818,84.791 L158.818,80.53 C158.818,80.085 159.089,79.602 159.594,79.602 C159.594,79.602 165.727,79.609 165.858,79.621 L165.858,68.464 C165.858,68.019 166.129,67.536 166.635,67.536 L191.274,67.536 C191.984,67.536 192.708,68.145 192.708,68.892 C192.708,71.744 192.709,74.596 193.141,77.448 L193.141,57.691 C193.141,57.246 193.412,56.763 193.918,56.763 L198.862,56.763 L198.862,52.52 C198.862,52.075 199.133,51.592 199.638,51.592 L207.995,51.592 C208.704,51.592 209.428,52.201 209.428,52.948 L211.075,57.625 C211.785,57.625 212.509,58.233 212.509,58.98 C212.509,58.98 214.19,78.313 214.263,78.318 L214.263,65.016 C214.263,64.571 214.534,64.088 215.04,64.088 L245.398,64.088 C245.465401,64.088 245.512975,64.1086415 245.543881,64.146 L253.977,64.146 C254.741,64.146 255.12,64.438 255.706,65.012 C256.447,65.737 257.847,66.237 256.484,66.237 L268.401,66 L268.401,58.546 C268.401,58.101 268.672,57.618 269.177,57.618 L279.401,57.618 L279.401,45.188 C279.401,44.743 279.672,44.26 280.178,44.26 L291.396,44.26 C292.105,44.26 292.829,44.869 292.829,45.616 L292.829,51.254 C292.829,50.478 294.523,52.271 294.761,53.101 C295.383,55.273 294.997,58.167 294.856,60.635 L298.215,60.635 C298.924,60.635 299.648,61.244 299.648,61.991 L299.648,68.822 L308.886,68.826 L308.886,61.563 C308.886,61.118 309.157,60.635 309.696,60.643 L309.696,56.088 L302.838,56.088 C302.128,56.088 301.404,55.479 301.404,54.732 L301.404,49.861 C301.404,49.416 301.675,48.933 302.181,48.933 L309.696,48.933 L309.696,46.48 C309.696,46.035 309.967,45.552 310.473,45.552 L315.045,45.552 L315.045,42.171 C315.045,41.726 315.316,41.243 315.821,41.243 L321.206,41.243 L321.206,37.431 C321.206,36.985 321.477,36.502 321.982,36.502 L331.658,36.502 C332.368,36.502 333.092,37.111 333.092,37.858 L333.092,39.52 L336.06,39.52 C336.769,39.52 337.493,40.128 337.493,40.876 L337.493,69.253 L341.147,69.253 L341.147,55.669 C341.147,49.124 340.86,42.744 341.932,36.292 C341.989,35.946 342.331,35.642 342.685,35.642 L348.928,35.642 L348.928,26.227 C348.928,25.782 349.199,25.299 349.705,25.299 L356.402,25.299 C356.406,25.17 356.408,25.021 356.408,24.831 L356.408,19.763 C356.408,19.317 356.679,18.834 357.185,18.834 L374.784,18.834 C375.493,18.834 376.217,19.443 376.217,20.19 L376.217,29.616 C376.538,29.93 376.857,30.244 377.178,30.558 C377.618,30.989 378.058,31.42 378.497,31.851 C378.89,32.235 378.856,32.778 378.856,33.275 C378.856,33.275 380.554,50.309 380.628,50.331 C380.618,50.226 380.61,50.108 380.61,49.962 L380.61,44.326 C380.61,43.881 380.881,43.398 381.387,43.398 L390.625,43.398 C390.982,43.398 391.342,43.552 391.612,43.801 L391.612,23.642 C391.612,23.196 391.883,22.713 392.389,22.713 C393.943,22.713 394.252,22.214 394.252,23.471 L394.252,16.315 C394.252,15.87 394.523,15.387 395.029,15.387 L398.669,15.398 C398.66,15.297 398.654,15.185 398.654,15.048 L398.654,9.376 C398.654,8.931 398.925,8.448 399.43,8.448 L410.426,8.448 C411.135,8.448 411.859,9.057 411.859,9.804 L411.859,12.371 L415.707,12.371 C416.417,12.371 417.141,12.98 417.141,13.727 L417.141,17.111 L419.667,17.111 C420.377,17.111 421.101,17.72 421.101,18.467 L421.101,26.592 L423.187,26.592 C423.897,26.592 424.621,27.201 424.621,27.948 L424.621,61.066 L427.696,61.078 L427.696,52.514 C427.696,52.068 427.967,51.585 428.472,51.585 L442.331,51.585 C443.04,51.585 443.764,52.194 443.764,52.941 L443.764,58.656 C443.835,58.73 443.922,58.83 444.033,58.967 C444.463,59.389 444.803,59.735 445.079,60.049 C445.21,59.887 445.393,59.773 445.633,59.773 C445.633,59.773 448.745,59.78 448.818,59.791 L448.818,55.53 C448.818,55.085 449.089,54.602 449.594,54.602 C449.594,54.602 455.727,54.609 455.858,54.621 L455.858,43.464 C455.858,43.019 456.129,42.536 456.635,42.536 L481.274,42.536 C481.984,42.536 482.708,43.145 482.708,43.892 C482.708,46.744 482.709,49.596 483.141,52.448 L483.141,32.691 C483.141,32.246 483.412,31.763 483.918,31.763 L488.862,31.763 L488.862,27.52 C488.862,27.075 489.133,26.592 489.638,26.592 L497.995,26.592 C498.704,26.592 499.428,27.201 499.428,27.948 L501.075,32.625 C501.785,32.625 502.509,33.233 502.509,33.98 C502.509,33.98 504.19,53.313 504.263,53.318 L504.263,40.016 C504.263,39.571 504.534,39.088 505.04,39.088 L535.398,39.088 C536.107,39.088 536.832,39.697 536.832,40.444 L536.832,51.155 L546.399,51.155 C547.109,51.155 547.833,51.764 547.833,52.511 L547.833,56.899 C547.833,56.899 551.689,56.914 551.787,56.937 L551.787,40.016 C551.787,39.571 552.058,39.088 552.563,39.088 L569.389,39.088 L569.389,35.276 C569.389,34.831 569.66,34.348 570.165,34.348 L580.283,34.348 C580.992,34.348 581.717,34.957 581.717,35.704 L581.717,46.845 L584.683,46.845 C585.392,46.845 586.116,47.454 586.116,48.201 L586.116,52.448 L589.523,52.448 C590.232,52.448 590.957,53.057 590.957,53.804 L590.957,57.187 C590.957,57.187 604.933,57.185 605.03,57.183 L605.03,30.967 C605.03,30.522 605.302,30.039 605.808,30.039 C605.808,30.039 608.394,30.008 608.552,29.994 L608.552,27.52 C608.552,27.075 608.823,26.592 609.329,26.592 L619.006,26.592 C619.715,26.592 620.44,27.201 620.44,27.948 C620.44,27.948 620.614,41.938 620.721,41.938 L630.992,41.729 L630.992,27.52 C630.992,27.075 631.264,26.592 631.77,26.592 L643.207,26.592 C643.916,26.592 644.641,27.201 644.641,27.948 L645.849,31.763 C646.558,31.763 647.282,32.372 647.282,33.119 L647.919,63.288 L647.919,61.199 C647.919,60.754 648.19,60.271 648.696,60.271 C648.696,60.271 651.041,60.218 651.145,60.205 L651.145,57.828 C651.145,57.382 651.416,56.899 651.922,56.899 L657.396,56.899 C657.391,56.781 657.387,56.649 657.387,56.487 L657.387,25.375 C657.387,24.929 657.658,24.446 658.164,24.446 L669.41,24.446 C669.422,24.271 669.437,24.006 669.437,23.599 L669.437,22.635 C669.437,22.189 669.708,21.707 670.214,21.707 L677.38,21.707 C678.089,21.707 678.814,22.315 678.814,23.063 L678.814,25.289 L683.19,25.289 C683.899,25.289 684.624,25.898 684.624,26.645 L686.4,30.136 C686.415,29.963 686.438,29.664 686.438,29.152 L686.438,28.114 C686.438,27.668 686.709,27.186 687.215,27.186 L693.95,27.186 C694.659,27.186 695.384,27.794 695.384,28.542 L695.476,29.082 L695.476,19.895 C695.476,19.45 695.747,18.967 696.253,18.967 L719.361,18.909 L719.361,10.412 C719.361,9.967 719.633,9.484 720.139,9.484 C720.984,9.484 721.275,9.703 721.354,9.798 C721.33,9.739 721.299,9.613 721.299,9.373 L721.299,7.461 C721.299,7.016 721.57,6.533 723.451,6.625 L723.451,0.929 C723.451,0.483 723.723,0 724.229,0 L735.912,0 C736.621,0 737.346,0.609 737.346,1.357 L738.495,7.587 C739.204,7.587 739.929,8.196 739.929,8.943 L739.929,24.765 C739.929,26.263 739.551,24.965 740.645,26.037 C741.041,26.426 741.004,26.983 741.004,27.485 C741.004,27.485 741.749,33.577 741.956,33.688 L741.956,15.048 C741.956,14.603 742.228,14.12 742.733,14.12 C744.183,14.12 744.324,13.714 744.324,14.72 L744.324,11.887 C744.324,11.441 744.596,10.959 745.102,10.959 L753.344,10.959 C754.053,10.959 754.777,11.567 754.777,12.314 L754.777,13.487 L760.875,13.487 C761.584,13.487 762.309,14.096 762.309,14.843 L762.309,24.868 L781.317,24.868 C782.026,24.868 782.751,25.477 782.751,26.224 L783.47,29.293 C784.179,29.293 784.903,29.902 784.903,30.649 C784.903,30.649 785.714,64.527 785.856,64.582 L785.856,57.406 C785.856,56.961 786.128,56.478 787.612,56.693 C787.593,56.617 787.577,56.517 787.577,56.368 L787.577,54.456 C787.577,54.011 787.849,53.528 788.355,53.528 C788.355,53.528 790.632,53.478 790.729,53.465 L790.729,32.691 C790.729,32.246 791,31.763 791.506,31.763 L817.903,31.763 C818.612,31.763 819.337,32.372 819.337,33.119 L820.545,54.171 C821.254,54.171 821.979,54.78 821.979,55.527 L821.979,56.353 C822.318,56.602 822.563,56.982 822.563,57.413 L822.563,67.647 L824.608,67.656 C824.598,67.545 824.591,67.422 824.591,67.268 L824.591,61.411 C824.591,60.965 824.862,60.482 825.368,60.482 L843.078,60.482 C843.787,60.482 844.512,61.091 844.512,61.958 L851.706,61.832 L851.706,60.778 C851.706,60.333 851.978,59.85 852.483,59.85 L861.584,59.85 C862.293,59.85 863.018,60.459 863.018,61.206 L863.018,70.598 C863.018,70.598 867.023,70.622 867.147,70.413 L867.147,68.365 C867.147,67.919 867.418,67.437 867.924,67.437 L881.168,67.437 C881.877,67.437 882.602,68.045 882.602,68.792 L882.602,72.495 L885.039,72.495 C885.748,72.495 886.473,73.104 886.473,73.851 L886.473,75.023 C886.473,75.023 894.137113,75.0481706 897,75.1260056 L897,71.442 C897,70.997 897.271,70.514 897.776,70.514 L908.753,70.514 C909.517,70.514 910.12,70.438 910.706,71.012 C911.447,71.737 912.847,72.237 911.484,72.237 L923.401,72 L923.401,64.546 C923.401,64.101 923.672,63.618 924.177,63.618 L934.401,63.618 L934.401,51.188 C934.401,50.743 934.672,50.26 935.178,50.26 L946.396,50.26 C947.105,50.26 947.829,50.869 947.829,51.616 L947.829,57.254 C947.829,56.478 949.523,58.271 949.761,59.101 C950.383,61.273 949.997,64.167 949.856,66.635 L953.215,66.635 C953.924,66.635 954.648,67.244 954.648,67.991 L954.648,74.822 L963.886,74.826 L963.886,67.563 C963.886,67.118 964.157,66.635 964.696,66.643 L964.696,62.088 L957.838,62.088 C957.128,62.088 956.404,61.479 956.404,60.732 L956.404,55.861 C956.404,55.416 956.675,54.933 957.181,54.933 L964.696,54.933 L964.696,52.48 C964.696,52.035 964.967,51.552 965.473,51.552 L970.045,51.552 L970.045,48.171 C970.045,47.726 970.316,47.243 970.821,47.243 L976.206,47.243 L976.206,43.431 C976.206,42.985 976.477,42.502 976.982,42.502 L986.658,42.502 C987.368,42.502 988.092,43.111 988.092,43.858 L988.092,45.52 L991.06,45.52 C991.769,45.52 992.493,46.128 992.493,46.876 L992.493,75.253 L996.147,75.253 L996.147,61.669 C996.147,55.124 995.86,48.744 996.932,42.292 C996.989,41.946 997.331,41.642 997.685,41.642 L1003.928,41.642 L1003.928,32.227 C1003.928,31.782 1004.199,31.299 1004.705,31.299 L1011.402,31.299 C1011.406,31.17 1011.408,31.021 1011.408,30.831 L1011.408,25.763 C1011.408,25.317 1011.679,24.834 1012.185,24.834 L1029.784,24.834 C1030.493,24.834 1031.217,25.443 1031.217,26.19 L1031.217,35.616 C1031.538,35.93 1031.857,36.244 1032.178,36.558 C1032.618,36.989 1033.058,37.42 1033.497,37.851 C1033.89,38.235 1033.856,38.778 1033.856,39.275 C1033.856,39.275 1035.554,56.309 1035.628,56.331 C1035.618,56.226 1035.61,56.108 1035.61,55.962 L1035.61,50.326 C1035.61,49.881 1035.881,49.398 1036.387,49.398 L1045.625,49.398 C1045.982,49.398 1046.342,49.552 1046.612,49.801 L1046.612,29.642 C1046.612,29.196 1046.883,28.713 1047.389,28.713 C1048.943,28.713 1049.252,28.214 1049.252,29.471 L1049.252,22.315 C1049.252,21.87 1049.523,21.387 1050.029,21.387 L1053.669,21.398 C1053.66,21.297 1053.654,21.185 1053.654,21.048 L1053.654,15.376 C1053.654,14.931 1053.925,14.448 1054.43,14.448 L1065.426,14.448 C1066.135,14.448 1066.859,15.057 1066.859,15.804 L1066.859,18.371 L1070.707,18.371 C1071.417,18.371 1072.141,18.98 1072.141,19.727 L1072.141,23.111 L1074.667,23.111 C1075.377,23.111 1076.101,23.72 1076.101,24.467 L1076.101,32.592 L1078.187,32.592 C1078.897,32.592 1079.621,33.201 1079.621,33.948 L1079.621,67.066 L1082.696,67.078 L1082.696,58.514 C1082.696,58.068 1082.967,57.585 1083.472,57.585 L1097.331,57.585 C1098.04,57.585 1098.764,58.194 1098.764,58.941 L1098.764,64.656 C1098.835,64.73 1098.922,64.83 1099.033,64.967 C1099.463,65.389 1099.803,65.735 1100.079,66.049 C1100.21,65.887 1100.393,65.773 1100.633,65.773 C1100.633,65.773 1103.745,65.78 1103.818,65.791 L1103.818,61.53 C1103.818,61.085 1104.089,60.602 1104.594,60.602 C1104.594,60.602 1110.727,60.609 1110.858,60.621 L1110.858,49.464 C1110.858,49.019 1111.129,48.536 1111.635,48.536 L1136.274,48.536 C1136.984,48.536 1137.708,49.145 1137.708,49.892 C1137.708,52.744 1137.709,55.596 1138.141,58.448 L1138.141,38.691 C1138.141,38.246 1138.412,37.763 1138.918,37.763 L1143.862,37.763 L1143.862,33.52 C1143.862,33.075 1144.133,32.592 1144.638,32.592 L1152.995,32.592 C1153.704,32.592 1154.428,33.201 1154.428,33.948 L1156.075,38.625 C1156.785,38.625 1157.509,39.233 1157.509,39.98 C1157.509,39.98 1159.19,59.313 1159.263,59.318 L1159.263,46.016 C1159.263,45.571 1159.534,45.088 1160.04,45.088 L1190.398,45.088 C1191.107,45.088 1191.832,45.697 1191.832,46.444 L1191.832,57.155 L1201.399,57.155 C1202.109,57.155 1202.833,57.764 1202.833,58.511 L1202.833,62.899 C1202.833,62.899 1206.689,62.914 1206.787,62.937 L1206.787,46.016 C1206.787,45.571 1207.058,45.088 1207.563,45.088 L1224.389,45.088 L1224.389,41.276 C1224.389,40.831 1224.66,40.348 1225.165,40.348 L1235.283,40.348 C1235.992,40.348 1236.717,40.957 1236.717,41.704 L1236.717,52.845 L1239.683,52.845 C1240.392,52.845 1241.116,53.454 1241.116,54.201 L1241.116,58.448 L1244.523,58.448 C1245.232,58.448 1245.957,59.057 1245.957,59.804 L1245.957,63.187 C1245.957,63.187 1259.933,63.185 1260.03,63.183 L1260.03,36.967 C1260.03,36.522 1260.302,36.039 1260.808,36.039 C1260.808,36.039 1263.394,36.008 1263.552,35.994 L1263.552,33.52 C1263.552,33.075 1263.823,32.592 1264.329,32.592 L1274.006,32.592 C1274.715,32.592 1275.44,33.201 1275.44,33.948 C1275.44,33.948 1275.614,47.938 1275.721,47.938 L1285.992,47.729 L1285.992,33.52 C1285.992,33.075 1286.264,32.592 1286.77,32.592 L1298.207,32.592 C1298.916,32.592 1299.641,33.201 1299.641,33.948 L1300.849,37.763 C1301.558,37.763 1302.282,38.372 1302.282,39.119 L1302.919,69.288 L1302.919,67.199 C1302.919,66.754 1303.19,66.271 1303.696,66.271 C1303.696,66.271 1306.041,66.218 1306.145,66.205 L1306.145,63.828 C1306.145,63.382 1306.416,62.899 1306.922,62.899 L1312.396,62.899 C1312.391,62.781 1312.387,62.649 1312.387,62.487 L1312.387,31.375 C1312.387,30.929 1312.658,30.446 1313.164,30.446 L1324.41,30.446 C1324.422,30.271 1324.437,30.006 1324.437,29.599 L1324.437,28.635 C1324.437,28.189 1324.708,27.707 1325.214,27.707 L1332.38,27.707 C1333.089,27.707 1333.814,28.315 1333.814,29.063 L1333.814,31.289 L1338.19,31.289 C1338.899,31.289 1339.624,31.898 1339.624,32.645 L1341.4,36.136 C1341.415,35.963 1341.438,35.664 1341.438,35.152 L1341.438,34.114 C1341.438,33.668 1341.709,33.186 1342.215,33.186 L1348.95,33.186 C1349.659,33.186 1350.384,33.794 1350.384,34.542 L1350.476,35.082 L1350.476,25.895 C1350.476,25.45 1350.747,24.967 1351.253,24.967 L1374.361,24.909 L1374.361,16.412 C1374.361,15.967 1374.633,15.484 1375.139,15.484 C1375.984,15.484 1376.275,15.703 1376.354,15.798 C1376.33,15.739 1376.299,15.613 1376.299,15.373 L1376.299,13.461 C1376.299,13.016 1376.57,12.533 1378.451,12.625 L1378.451,6.929 C1378.451,6.483 1378.723,6 1379.229,6 L1390.912,6 C1391.621,6 1392.346,6.609 1392.346,7.357 L1393.495,13.587 C1394.204,13.587 1394.929,14.196 1394.929,14.943 L1394.929,30.765 C1394.929,32.263 1394.551,30.965 1395.645,32.037 C1396.041,32.426 1396.004,32.983 1396.004,33.485 C1396.004,33.485 1396.749,39.577 1396.956,39.688 L1396.956,21.048 C1396.956,20.603 1397.228,20.12 1397.733,20.12 C1399.183,20.12 1399.324,19.714 1399.324,20.72 L1399.324,17.887 C1399.324,17.441 1399.596,16.959 1400.102,16.959 L1408.344,16.959 C1409.053,16.959 1409.777,17.567 1409.777,18.314 L1409.777,19.487 L1415.875,19.487 C1416.584,19.487 1417.309,20.096 1417.309,20.843 L1417.309,30.868 L1436.317,30.868 C1437.026,30.868 1437.751,31.477 1437.751,32.224 L1438.47,35.293 C1439.179,35.293 1439.903,35.902 1439.903,36.649 C1439.903,36.649 1440.714,70.527 1440.856,70.582 L1440.856,63.406 C1440.856,62.961 1441.128,62.478 1442.612,62.693 C1442.593,62.617 1442.577,62.517 1442.577,62.368 L1442.577,60.456 C1442.577,60.011 1442.849,59.528 1443.355,59.528 C1443.355,59.528 1445.632,59.478 1445.729,59.465 L1445.729,38.691 C1445.729,38.246 1446,37.763 1446.506,37.763 L1472.903,37.763 C1473.612,37.763 1474.337,38.372 1474.337,39.119 L1475.545,60.171 C1476.254,60.171 1476.979,60.78 1476.979,61.527 L1476.979,62.353 C1477.318,62.602 1477.563,62.982 1477.563,63.413 L1477.563,73.647 L1479.608,73.656 C1479.598,73.545 1479.591,73.422 1479.591,73.268 L1479.591,67.411 C1479.591,66.965 1479.862,66.482 1480.368,66.482 L1498.078,66.482 C1498.787,66.482 1499.512,67.091 1499.512,67.958 L1506.706,67.832 L1506.706,66.778 C1506.706,66.333 1506.978,65.85 1507.483,65.85 L1516.584,65.85 C1517.293,65.85 1518.018,66.459 1518.018,67.206 L1518.018,76.598 C1518.018,76.598 1522.023,76.622 1522.147,76.413 L1522.147,74.365 C1522.147,73.919 1522.418,73.437 1522.924,73.437 L1536.168,73.437 C1536.877,73.437 1537.602,74.045 1537.602,74.792 L1537.602,78.495 L1540.039,78.495 C1540.748,78.495 1541.473,79.104 1541.473,79.851 L1541.473,81.023 C1541.473,81.023 1548.54964,81.0462412 1551.643,81.1171176 L1551.643,61.691 C1551.643,61.246 1551.914,60.763 1552.42,60.763 L1557.364,60.763 L1557.364,56.52 C1557.364,56.075 1557.635,55.592 1558.14,55.592 L1566.497,55.592 C1567.206,55.592 1567.93,56.201 1567.93,56.948 L1569.577,61.625 C1570.287,61.625 1571.011,62.233 1571.011,62.98 C1571.011,62.98 1572.692,82.313 1572.765,82.318 L1572.765,69.016 C1572.765,68.571 1573.036,68.088 1573.542,68.088 L1603.9,68.088 C1604.609,68.088 1605.334,68.697 1605.334,69.444 L1605.334,80.155 L1614.901,80.155 C1615.611,80.155 1616.335,80.764 1616.335,81.511 L1616.335,85.899 C1616.335,85.899 1620.191,85.914 1620.289,85.937 L1620.289,69.016 C1620.289,68.571 1620.56,68.088 1621.065,68.088 L1637.891,68.088 L1637.891,64.276 C1637.891,63.831 1638.162,63.348 1638.667,63.348 L1648.785,63.348 C1649.494,63.348 1650.219,63.957 1650.219,64.704 L1650.219,75.845 L1653.185,75.845 C1653.894,75.845 1654.618,76.454 1654.618,77.201 L1654.618,81.448 L1658.025,81.448 C1658.734,81.448 1659.459,82.057 1659.459,82.804 L1659.459,86.187 C1659.459,86.187 1673.435,86.185 1673.532,86.183 L1673.532,59.967 C1673.532,59.522 1673.804,59.039 1674.31,59.039 C1674.31,59.039 1676.896,59.008 1677.054,58.994 L1677.054,56.52 C1677.054,56.075 1677.325,55.592 1677.831,55.592 L1687.508,55.592 C1688.217,55.592 1688.942,56.201 1688.942,56.948 C1688.942,56.948 1689.116,70.938 1689.223,70.938 L1699.494,70.729 L1699.494,56.52 C1699.494,56.075 1699.766,55.592 1700.272,55.592 L1711.709,55.592 C1712.418,55.592 1713.143,56.201 1713.143,56.948 L1714.351,60.763 C1715.06,60.763 1715.784,61.372 1715.784,62.119 L1716.421,92.288 L1716.421,90.199 C1716.421,89.754 1716.692,89.271 1717.198,89.271 C1717.198,89.271 1719.543,89.218 1719.647,89.205 L1719.647,86.828 C1719.647,86.382 1719.918,85.899 1720.424,85.899 L1725.898,85.899 C1725.893,85.781 1725.889,85.649 1725.889,85.487 L1725.889,54.375 C1725.889,53.929 1726.16,53.446 1726.666,53.446 L1737.912,53.446 C1737.924,53.271 1737.939,53.006 1737.939,52.599 L1737.939,51.635 C1737.939,51.189 1738.21,50.707 1738.716,50.707 L1745.882,50.707 C1746.591,50.707 1747.316,51.315 1747.316,52.063 L1747.316,54.289 L1751.692,54.289 C1752.401,54.289 1753.126,54.898 1753.126,55.645 L1754.902,59.136 C1754.917,58.963 1754.94,58.664 1754.94,58.152 L1754.94,57.114 C1754.94,56.668 1755.211,56.186 1755.717,56.186 L1762.452,56.186 C1763.161,56.186 1763.886,56.794 1763.886,57.542 L1763.978,58.082 L1763.978,48.895 C1763.978,48.45 1764.249,47.967 1764.755,47.967 L1787.863,47.909 L1787.863,39.412 C1787.863,38.967 1788.135,38.484 1788.641,38.484 C1789.486,38.484 1789.777,38.703 1789.856,38.798 C1789.832,38.739 1789.801,38.613 1789.801,38.373 L1789.801,36.461 C1789.801,36.016 1790.072,35.533 1791.953,35.625 L1791.953,29.929 C1791.953,29.483 1792.225,29 1792.731,29 L1804.414,29 C1805.123,29 1805.848,29.609 1805.848,30.357 L1806.997,36.587 C1807.706,36.587 1808.431,37.196 1808.431,37.943 L1808.431,53.765 C1808.431,55.263 1808.053,53.965 1809.147,55.037 C1809.543,55.426 1809.506,55.983 1809.506,56.485 C1809.506,56.485 1810.251,62.577 1810.458,62.688 L1810.458,44.048 C1810.458,43.603 1810.73,43.12 1811.235,43.12 C1812.685,43.12 1812.826,42.714 1812.826,43.72 L1812.826,40.887 C1812.826,40.441 1813.098,39.959 1813.604,39.959 L1821.846,39.959 C1822.555,39.959 1823.279,40.567 1823.279,41.314 L1823.279,42.487 L1829.377,42.487 C1830.086,42.487 1830.811,43.096 1830.811,43.843 L1830.811,53.868 L1849.819,53.868 C1850.528,53.868 1851.253,54.477 1851.253,55.224 L1851.972,58.293 C1852.681,58.293 1853.405,58.902 1853.405,59.649 C1853.405,59.649 1854.216,93.527 1854.358,93.582 L1854.358,86.406 C1854.358,85.961 1854.63,85.478 1856.114,85.693 C1856.095,85.617 1856.079,85.517 1856.079,85.368 L1856.079,83.456 C1856.079,83.011 1856.351,82.528 1856.857,82.528 C1856.857,82.528 1859.134,82.478 1859.231,82.465 L1859.231,61.691 C1859.231,61.246 1859.502,60.763 1860.008,60.763 L1886.405,60.763 C1887.114,60.763 1887.839,61.372 1887.839,62.119 L1889.047,83.171 C1889.756,83.171 1890.481,83.78 1890.481,84.527 L1890.481,85.353 C1890.82,85.602 1891.065,85.982 1891.065,86.413 L1891.065,96.647 L1893.11,96.656 C1893.1,96.545 1893.093,96.422 1893.093,96.268 L1893.093,90.411 C1893.093,89.965 1893.364,89.482 1893.87,89.482 L1911.58,89.482 C1912.289,89.482 1913.014,90.091 1913.014,90.958 L1920.208,90.832 L1920.208,89.778 C1920.208,89.333 1920.48,88.85 1920.985,88.85 L1930.086,88.85 C1930.795,88.85 1931.52,89.459 1931.52,90.206 L1931.52,99.598 C1931.52,99.598 1935.525,99.622 1935.649,99.413 L1935.649,97.365 C1935.649,96.919 1935.92,96.437 1936.426,96.437 L1949.67,96.437 C1950.379,96.437 1951.104,97.045 1951.104,97.792 L1951.104,101.495 L1953.541,101.495 C1954.25,101.495 1954.975,102.104 1954.975,102.851 L1954.975,104.023 C1954.975,104.023 1966.241,104.06 1966.557,104.183 C1967.031,104.384 1967.456,105.822 1967.456,106.379 L1965.245,106.307 L1955.707,106.298 C1955.746,106.434 1955.774,106.61 1955.774,106.854 C1955.774,107.299 1955.502,107.782 1954.197,107.782 C1953.488,107.782 1952.764,107.173 1952.764,106.426 L1952.764,103.779 L1950.326,103.779 C1949.617,103.779 1948.893,103.17 1948.893,102.423 L1948.893,98.721 L1937.859,98.905 L1937.859,100.954 C1937.859,101.399 1937.588,101.882 1937.082,101.882 L1930.742,101.882 C1930.033,101.882 1929.309,101.273 1929.309,100.526 L1929.309,91.134 L1922.419,91.26 L1922.419,92.313 C1922.419,92.759 1922.148,93.242 1921.642,93.242 L1912.236,93.242 C1911.527,93.242 1910.803,92.633 1910.803,91.767 L1895.304,91.767 L1895.304,98.003 C1895.304,98.449 1895.032,98.932 1894.526,98.932 L1890.287,98.932 C1889.578,98.932 1888.854,98.323 1888.854,97.576 L1888.854,87.044 C1888.514,86.796 1888.27,86.416 1888.27,85.985 L1887.062,85.455 C1886.353,85.455 1885.628,84.846 1885.628,84.099 L1885.628,63.047 L1861.442,63.047 L1861.442,83.884 C1861.442,84.329 1861.17,84.812 1860.664,84.812 C1860.664,84.812 1858.387,84.86 1858.29,84.874 L1858.29,86.834 C1858.29,87.279 1858.019,87.762 1856.569,87.609 L1856.569,94.842 C1856.569,95.288 1856.298,95.771 1854.932,95.548 C1854.994,95.714 1855.064,96.046 1855.064,96.667 L1855.064,99.478 C1855.064,99.923 1854.792,100.406 1852.628,100.406 C1851.919,100.406 1851.194,99.797 1851.194,99.05 L1850.476,60.578 C1849.767,60.578 1849.042,59.969 1849.042,59.222 L1849.042,56.152 L1830.033,56.152 C1829.324,56.152 1828.6,55.543 1828.6,54.796 L1828.6,44.771 L1822.502,44.771 C1821.793,44.771 1821.068,44.163 1821.068,43.416 L1821.068,42.243 C1821.068,42.243 1815.213,42.27 1815.037,42.283 L1815.037,44.476 C1815.037,44.921 1814.766,45.404 1814.26,45.404 C1812.798,45.404 1812.676,45.761 1812.669,44.97 L1812.669,76.508 C1812.669,76.953 1812.398,77.436 1810.45,77.436 C1809.741,77.436 1809.017,76.827 1809.017,76.08 L1808.729,64.792 C1808.02,64.792 1807.295,64.183 1807.295,63.436 L1807.295,55.624 C1807.295,56.42 1806.22,53.782 1806.22,52.78 L1805.07,38.872 C1804.361,38.872 1803.637,38.263 1803.637,37.516 L1803.637,31.285 C1803.637,31.285 1794.325,31.292 1794.164,31.301 L1794.164,36.889 C1794.164,37.334 1793.893,37.817 1793.387,37.817 C1792.141,37.817 1792.019,38.07 1792.012,37.578 L1792.012,39.84 C1792.012,40.285 1791.74,40.768 1791.234,40.768 C1790.499,40.768 1790.173,40.563 1790.041,40.405 C1790.06,40.499 1790.074,40.632 1790.074,40.826 L1790.074,49.323 C1790.074,49.768 1789.803,50.251 1789.297,50.251 L1766.189,50.251 L1766.189,59.438 C1766.189,59.883 1765.917,60.366 1765.411,60.366 L1763.108,60.366 C1762.4,60.366 1761.675,59.757 1761.675,59.01 L1761.675,58.47 C1761.675,58.47 1757.262,58.456 1757.15,58.58 L1757.15,60.492 C1757.15,60.938 1756.879,61.42 1756.373,61.42 L1752.349,61.42 C1751.64,61.42 1750.915,60.812 1750.915,60.064 L1750.915,56.573 L1746.538,56.573 C1745.829,56.573 1745.105,55.964 1745.105,55.217 L1745.105,52.991 C1745.105,52.991 1740.279,52.975 1740.15,53.027 L1740.15,54.802 C1740.15,55.248 1739.878,55.73 1739.372,55.73 L1728.1,55.73 L1728.1,87.255 C1728.1,87.701 1727.828,88.184 1727.322,88.184 L1721.815,88.184 C1721.84,88.36 1721.858,88.602 1721.858,88.941 L1721.858,90.627 C1721.858,91.072 1721.586,91.555 1721.08,91.555 C1721.08,91.555 1718.735,91.607 1718.632,91.621 L1718.632,93.683 C1718.632,94.128 1718.36,94.611 1717.855,94.611 L1715.007,94.611 C1714.298,94.611 1713.573,94.002 1713.573,93.255 L1712.365,63.047 C1711.656,63.047 1710.932,62.438 1710.932,61.691 L1710.932,57.876 L1701.705,58.084 L1701.705,72.293 C1701.705,72.739 1701.434,73.222 1700.928,73.222 L1690.656,73.222 L1690.656,77.562 C1690.656,78.007 1690.385,78.49 1688.164,78.49 C1687.455,78.49 1686.731,77.881 1686.731,77.134 L1686.731,57.876 L1679.265,57.876 L1679.265,60.395 C1679.265,60.84 1678.993,61.323 1678.487,61.323 C1678.487,61.323 1675.912,61.353 1675.743,61.367 L1675.743,87.543 C1675.743,87.988 1675.472,88.471 1674.966,88.471 L1658.682,88.471 C1657.973,88.471 1657.248,87.862 1657.248,87.115 L1657.248,83.732 L1653.841,83.732 C1653.132,83.732 1652.407,83.123 1652.407,82.376 L1652.407,78.129 L1649.442,78.129 C1648.733,78.129 1648.008,77.521 1648.008,76.773 L1648.008,65.632 C1648.008,65.632 1640.192,65.58 1640.006,65.512 C1640.06,65.666 1640.101,65.886 1640.101,66.204 L1640.101,69.444 C1640.101,69.889 1639.83,70.372 1639.324,70.372 L1622.499,70.372 L1622.499,87.543 C1622.499,87.988 1622.228,88.471 1620.65,88.471 C1620.354,88.471 1620.059,88.361 1619.812,88.184 L1615.559,88.184 C1614.849,88.184 1614.125,87.575 1614.125,86.828 L1614.125,82.439 L1604.557,82.439 C1603.848,82.439 1603.124,81.83 1603.124,81.083 L1603.124,70.372 L1574.975,70.372 L1574.975,83.665 C1574.975,84.11 1574.704,84.593 1574.199,84.593 L1570.234,84.593 C1569.525,84.593 1568.801,83.984 1568.801,83.237 L1567.154,63.909 C1566.444,63.909 1565.72,63.3 1565.72,62.553 L1565.72,57.876 C1565.72,57.876 1559.606,57.855 1559.495,57.825 C1559.541,58.001 1559.574,58.242 1559.574,58.584 L1559.574,62.119 C1559.574,62.564 1559.303,63.047 1558.797,63.047 L1553.853,63.047 L1553.853,81.9208174 C1553.91713,82.0612115 1553.954,82.2149441 1553.954,82.379 L1553.954,83.593 C1553.215,83.597 1552.476,83.603 1551.738,83.612 C1551.741,83.478 1551.743,83.331 1551.743,83.307 L1542.205,83.298 C1542.244,83.434 1542.272,83.61 1542.272,83.854 C1542.272,84.299 1542,84.782 1540.695,84.782 C1539.986,84.782 1539.262,84.173 1539.262,83.426 L1539.262,80.779 L1536.824,80.779 C1536.115,80.779 1535.391,80.17 1535.391,79.423 L1535.391,75.721 L1524.357,75.905 L1524.357,77.954 C1524.357,78.399 1524.086,78.882 1523.58,78.882 L1517.24,78.882 C1516.531,78.882 1515.807,78.273 1515.807,77.526 L1515.807,68.134 L1508.917,68.26 L1508.917,69.313 C1508.917,69.759 1508.646,70.242 1508.14,70.242 L1498.734,70.242 C1498.025,70.242 1497.301,69.633 1497.301,68.767 L1481.802,68.767 L1481.802,75.003 C1481.802,75.449 1481.53,75.932 1481.024,75.932 L1476.785,75.932 C1476.076,75.932 1475.352,75.323 1475.352,74.576 L1475.352,64.044 C1475.012,63.796 1474.768,63.416 1474.768,62.985 L1473.56,62.455 C1472.851,62.455 1472.126,61.846 1472.126,61.099 L1472.126,40.047 L1447.94,40.047 L1447.94,60.884 C1447.94,61.329 1447.668,61.812 1447.162,61.812 C1447.162,61.812 1444.885,61.86 1444.788,61.874 L1444.788,63.834 C1444.788,64.279 1444.517,64.762 1443.067,64.609 L1443.067,71.842 C1443.067,72.288 1442.796,72.771 1441.43,72.548 C1441.492,72.714 1441.562,73.046 1441.562,73.667 L1441.562,76.478 C1441.562,76.923 1441.29,77.406 1439.126,77.406 C1438.417,77.406 1437.692,76.797 1437.692,76.05 L1436.974,37.578 C1436.265,37.578 1435.54,36.969 1435.54,36.222 L1435.54,33.152 L1416.531,33.152 C1415.822,33.152 1415.098,32.543 1415.098,31.796 L1415.098,21.771 L1409,21.771 C1408.291,21.771 1407.566,21.163 1407.566,20.416 L1407.566,19.243 C1407.566,19.243 1401.711,19.27 1401.535,19.283 L1401.535,21.476 C1401.535,21.921 1401.264,22.404 1400.758,22.404 C1399.296,22.404 1399.174,22.761 1399.167,21.97 L1399.167,53.508 C1399.167,53.953 1398.896,54.436 1396.948,54.436 C1396.239,54.436 1395.515,53.827 1395.515,53.08 L1395.227,41.792 C1394.518,41.792 1393.793,41.183 1393.793,40.436 L1393.793,32.624 C1393.793,33.42 1392.718,30.782 1392.718,29.78 L1391.568,15.872 C1390.859,15.872 1390.135,15.263 1390.135,14.516 L1390.135,8.285 C1390.135,8.285 1380.823,8.292 1380.662,8.301 L1380.662,13.889 C1380.662,14.334 1380.391,14.817 1379.885,14.817 C1378.639,14.817 1378.517,15.07 1378.51,14.578 L1378.51,16.84 C1378.51,17.285 1378.238,17.768 1377.732,17.768 C1376.997,17.768 1376.671,17.563 1376.539,17.405 C1376.558,17.499 1376.572,17.632 1376.572,17.826 L1376.572,26.323 C1376.572,26.768 1376.301,27.251 1375.795,27.251 L1352.687,27.251 L1352.687,36.438 C1352.687,36.883 1352.415,37.366 1351.909,37.366 L1349.606,37.366 C1348.898,37.366 1348.173,36.757 1348.173,36.01 L1348.173,35.47 C1348.173,35.47 1343.76,35.456 1343.648,35.58 L1343.648,37.492 C1343.648,37.938 1343.377,38.42 1342.871,38.42 L1338.847,38.42 C1338.138,38.42 1337.413,37.812 1337.413,37.064 L1337.413,33.573 L1333.036,33.573 C1332.327,33.573 1331.603,32.964 1331.603,32.217 L1331.603,29.991 C1331.603,29.991 1326.777,29.975 1326.648,30.027 L1326.648,31.802 C1326.648,32.248 1326.376,32.73 1325.87,32.73 L1314.598,32.73 L1314.598,64.255 C1314.598,64.701 1314.326,65.184 1313.82,65.184 L1308.313,65.184 C1308.338,65.36 1308.356,65.602 1308.356,65.941 L1308.356,67.627 C1308.356,68.072 1308.084,68.555 1307.578,68.555 C1307.578,68.555 1305.233,68.607 1305.13,68.621 L1305.13,70.683 C1305.13,71.128 1304.858,71.611 1304.353,71.611 L1301.505,71.611 C1300.796,71.611 1300.071,71.002 1300.071,70.255 L1298.863,40.047 C1298.154,40.047 1297.43,39.438 1297.43,38.691 L1297.43,34.876 L1288.203,35.084 L1288.203,49.293 C1288.203,49.739 1287.932,50.222 1287.426,50.222 L1277.154,50.222 L1277.154,54.562 C1277.154,55.007 1276.883,55.49 1274.662,55.49 C1273.953,55.49 1273.229,54.881 1273.229,54.134 L1273.229,34.876 L1265.763,34.876 L1265.763,37.395 C1265.763,37.84 1265.491,38.323 1264.985,38.323 C1264.985,38.323 1262.41,38.353 1262.241,38.367 L1262.241,64.543 C1262.241,64.988 1261.97,65.471 1261.464,65.471 L1245.18,65.471 C1244.471,65.471 1243.746,64.862 1243.746,64.115 L1243.746,60.732 L1240.339,60.732 C1239.63,60.732 1238.905,60.123 1238.905,59.376 L1238.905,55.129 L1235.94,55.129 C1235.231,55.129 1234.506,54.521 1234.506,53.773 L1234.506,42.632 C1234.506,42.632 1226.69,42.58 1226.504,42.512 C1226.558,42.666 1226.599,42.886 1226.599,43.204 L1226.599,46.444 C1226.599,46.889 1226.328,47.372 1225.822,47.372 L1208.997,47.372 L1208.997,64.543 C1208.997,64.988 1208.726,65.471 1207.148,65.471 C1206.852,65.471 1206.557,65.361 1206.31,65.184 L1202.057,65.184 C1201.347,65.184 1200.623,64.575 1200.623,63.828 L1200.623,59.439 L1191.055,59.439 C1190.346,59.439 1189.622,58.83 1189.622,58.083 L1189.622,47.372 L1161.473,47.372 L1161.473,60.665 C1161.473,61.11 1161.202,61.593 1160.697,61.593 L1156.732,61.593 C1156.023,61.593 1155.299,60.984 1155.299,60.237 L1153.652,40.909 C1152.942,40.909 1152.218,40.3 1152.218,39.553 L1152.218,34.876 C1152.218,34.876 1146.104,34.855 1145.993,34.825 C1146.039,35.001 1146.072,35.242 1146.072,35.584 L1146.072,39.119 C1146.072,39.564 1145.801,40.047 1145.295,40.047 L1140.351,40.047 L1140.351,59.804 C1140.351,60.249 1140.08,60.732 1137.717,60.732 C1137.713,60.877 1137.71,61.064 1137.71,61.303 L1137.71,64.543 C1137.71,66.12 1135.501,65.391 1135.501,64.115 C1135.5,59.684 1135.499,55.252 1135.498,50.82 L1113.068,50.82 L1113.068,61.958 C1113.068,62.403 1112.797,62.886 1112.292,62.886 L1106.028,62.886 L1106.028,67.129 C1106.028,67.574 1105.757,68.057 1105.252,68.057 L1102.106,68.057 C1102.091,68.225 1102.066,68.534 1102.066,69.084 L1102.066,70.146 C1102.066,70.591 1101.795,71.074 1100.406,71.074 C1099.697,71.074 1098.973,70.465 1098.973,69.718 C1098.973,67.641 1099.392,68.07 1098.122,66.826 C1097.63,66.344 1096.807,65.787 1096.603,65.075 C1096.169,63.564 1096.386,61.609 1096.499,59.87 L1084.906,59.87 L1084.906,71.438 C1084.906,71.884 1084.635,72.367 1083.246,72.367 C1082.536,72.367 1081.812,71.758 1081.812,71.011 L1081.812,69.351 L1078.844,69.351 C1078.135,69.351 1077.411,68.742 1077.411,67.995 L1077.411,34.876 L1075.324,34.876 C1074.615,34.876 1073.891,34.267 1073.891,33.52 L1073.891,25.396 L1071.364,25.396 C1070.655,25.396 1069.931,24.787 1069.931,24.04 L1069.931,20.655 L1066.083,20.655 C1065.374,20.655 1064.649,20.046 1064.649,19.299 L1064.649,16.732 L1055.864,16.726 L1055.864,22.743 C1055.864,23.188 1055.593,23.671 1055.087,23.671 L1051.442,23.659 C1051.454,23.778 1051.462,23.911 1051.462,24.081 L1051.462,30.069 C1051.462,30.515 1051.191,30.998 1048.822,30.998 L1048.822,55.472 C1048.822,55.917 1048.551,56.4 1046.282,56.4 C1045.573,56.4 1044.849,55.791 1044.849,55.044 L1044.849,51.682 L1037.82,51.682 L1037.82,57.648 C1037.82,58.094 1037.549,58.577 1037.044,58.577 L1033.08,58.577 C1032.37,58.577 1031.646,57.968 1031.646,57.221 L1031.651,38.746 C1031.567,38.692 1031.46,38.605 1031.32,38.468 C1030.734,37.894 1030.148,37.319 1029.562,36.744 C1029.088,36.28 1029.007,35.845 1029.007,35.212 L1029.007,27.119 C1029.007,27.119 1013.696,27.12 1013.618,27.121 L1013.618,32.655 C1013.618,33.1 1013.347,33.583 1012.842,33.583 C1012.842,33.583 1006.323,33.618 1006.138,33.631 L1006.138,45.583 C1006.138,46.028 1005.867,46.511 1004.918,46.511 C1004.208,46.511 1003.484,45.902 1003.484,45.155 L1003.484,43.926 L998.859,43.887 C998.896,44.02 998.918,44.347 998.795,45.081 C998.656,45.924 998.516,46.766 998.376,47.609 C997.969,50.058 998.357,52.92 998.357,55.404 L998.357,76.609 C998.357,77.054 998.086,77.537 997.581,77.537 L991.717,77.537 C991.007,77.537 990.283,76.928 990.283,76.181 L990.283,47.804 L987.315,47.804 C986.606,47.804 985.882,47.195 985.882,46.448 L985.882,44.787 C985.882,44.787 978.51,44.72 978.314,44.641 C978.371,44.794 978.416,45.023 978.416,45.358 L978.416,48.599 C978.416,49.044 978.145,49.527 977.639,49.527 L972.255,49.527 L972.255,56.289 C972.255,56.734 971.984,57.217 971.105,57.217 C970.396,57.217 969.671,56.608 969.671,55.861 L969.671,53.836 L966.924,53.836 C966.915,54.007 966.906,54.251 966.906,54.599 L966.906,56.289 C966.906,56.734 966.635,57.217 966.13,57.217 C966.13,57.217 958.659,57.198 958.551,57.169 C958.588,57.331 958.614,57.542 958.614,57.83 L958.614,59.804 L965.473,59.804 C966.182,59.804 966.906,60.413 966.906,61.16 L966.906,67.991 C966.906,68.437 966.635,68.919 966.096,69.098 L966.096,76.178 C966.096,76.624 965.825,77.106 965.319,77.106 L953.872,77.106 C953.163,77.106 952.439,76.498 952.439,75.751 L952.439,68.919 L949.033,68.919 C948.323,68.919 947.599,68.311 947.599,67.563 L947.599,59.11 C947.599,60.112 947.218,59.099 946.675,58.567 C945.138,57.062 945.414,54.696 945.561,52.544 L936.611,52.544 L936.611,64.974 C936.611,65.419 936.34,65.902 935.835,65.902 L925.611,66.139 L925.611,73.593 C925.611,74.038 925.34,74.521 924.835,74.521 C920.693,74.521 915.828,75.289 911.77,74.503 C910.996,74.354 910.275,73.42 909.41,72.798 L899.209,72.791 L899.209,76.237 C899.052218,76.2612841 898.895391,76.2857951 898.738539,76.310504 Z" fill="#B3B3B3" mask="url(#mask-2)"></path>
        </g>
    </g>
</svg>