<?xml version="1.0" encoding="UTF-8" standalone="no"?>
<svg width="150px" height="129px" viewBox="0 0 150 129" version="1.1" xmlns="http://www.w3.org/2000/svg" xmlns:xlink="http://www.w3.org/1999/xlink">
    <g stroke="none" stroke-width="1" fill="none" fill-rule="evenodd">
        <g transform="translate(-605.000000, -70.000000)">
            <g transform="translate(605.000000, 70.000000)">
                <polyline fill="#253870" points="53.8591831 43.4622235 74.0209328 63.5354307 53.8591831 83.6086379 53.8591831 43.4622235"></polyline>
                <polyline fill="#3785BA" points="74.2982523 105.33975 54.1349446 85.2665424 74.2982523 65.1933352 74.2982523 105.33975"></polyline>
                <polyline fill="#006A98" points="75.5617697 65.1933352 95.7250774 85.2665424 75.5617697 105.33975 75.5617697 65.1933352"></polyline>
                <polyline fill="#3785BA" points="53.8591831 86.9228961 74.0209328 106.997654 53.8591831 127.06931 53.8591831 86.9228961"></polyline>
                <polyline fill="#3785BA" points="95.8621792 127.06931 75.7004294 106.996103 95.8621792 86.9228961 95.8621792 127.06931"></polyline>
                <polyline fill="#2C2C68" points="95.7266354 83.5574584 75.5617697 63.4842512 95.7266354 43.4125949 95.7266354 83.5574584"></polyline>
                <polyline fill="#81CBD2" points="54.7659243 128.116163 74.927674 108.042956 95.0956556 128.116163 54.7659243 128.116163"></polyline>
                <polyline fill="#B6D037" points="107.852352 86.9228961 128.017218 106.997654 107.852352 127.06931 107.852352 86.9228961"></polyline>
                <polyline fill="#216638" points="128.155877 61.8775261 107.994128 41.8058698 128.155877 21.7311117 128.155877 61.8775261"></polyline>
                <polyline fill="#359A46" points="129.419395 21.7326626 149.581145 41.8043189 129.419395 61.8775261 129.419395 21.7326626"></polyline>
                <polyline fill="#359A46" points="107.71525 43.4622235 127.878558 63.5354307 107.71525 83.6086379 107.71525 43.4622235"></polyline>
                <polyline fill="#7EAA40" points="149.860022 83.6086379 129.696714 63.5354307 149.860022 43.4622235 149.860022 83.6086379"></polyline>
                <polyline fill="#7EAA40" points="128.155877 105.33975 107.994128 85.2665424 128.155877 65.1933352 128.155877 105.33975"></polyline>
                <polyline fill="#B6D037" points="129.419395 65.1933352 149.581145 85.2665424 129.419395 105.33975 129.419395 65.1933352"></polyline>
                <polyline fill="#D7DD2D" points="149.719804 127.06931 129.558055 106.996103 149.719804 86.9228961 149.719804 127.06931"></polyline>
                <polyline fill="#216638" points="149.860022 40.1479653 129.696714 20.0732072 149.860022 0 149.860022 40.1479653"></polyline>
                <polyline fill="#F0E825" points="108.631339 128.116163 128.796205 108.042956 148.961071 128.116163 108.631339 128.116163"></polyline>
                <polyline fill="#DC3B2A" points="42.0061121 86.9228961 21.8428044 106.997654 42.0061121 127.06931 42.0061121 86.9228961"></polyline>
                <polyline fill="#7D2632" points="21.7025866 61.8775261 41.8674523 41.8058698 21.7025866 21.7311117 21.7025866 61.8775261"></polyline>
                <polyline fill="#982A34" points="20.4406272 21.7326626 0.277319485 41.8043189 20.4406272 61.8775261 20.4406272 21.7326626"></polyline>
                <polyline fill="#982A34" points="42.1447718 43.4622235 21.9814641 63.5354307 42.1447718 83.6086379 42.1447718 43.4622235"></polyline>
                <polyline fill="#C12531" points="0 83.6086379 20.1648657 63.5354307 0 43.4622235 0 83.6086379"></polyline>
                <polyline fill="#C12531" points="21.7025866 105.33975 41.8674523 85.2665424 21.7025866 65.1933352 21.7025866 105.33975"></polyline>
                <polyline fill="#DC3B2A" points="20.4406272 65.1933352 0.277319485 85.2665424 20.4406272 105.33975 20.4406272 65.1933352"></polyline>
                <polyline fill="#ED962D" points="0.138659742 127.06931 20.3019674 106.996103 0.138659742 86.9228961 0.138659742 127.06931"></polyline>
                <polyline fill="#7D2632" points="0 40.1479653 20.1648657 20.0732072 0 0 0 40.1479653"></polyline>
                <polyline fill="#F8CD22" points="41.2271247 128.116163 21.063817 108.042956 0.897393389 128.116163 41.2271247 128.116163"></polyline>
            </g>
        </g>
    </g>
</svg>