<?xml version="1.0" encoding="UTF-8" standalone="no"?>
<svg width="24px" height="229px" viewBox="0 0 24 229" version="1.1" xmlns="http://www.w3.org/2000/svg" xmlns:xlink="http://www.w3.org/1999/xlink">
    <g stroke="none" stroke-width="1" fill="none" fill-rule="evenodd">
        <g transform="translate(-290.000000, -1510.000000)">
            <g transform="translate(290.000000, 1510.000000)">
                <g transform="translate(0.000000, -49.000000)">
                    <polyline fill="#982A34" points="24 25 0 48.9990728 24 73 24 25"></polyline>
                    <polyline fill="#C12531" points="0 98.1487194 24 74.1487194 0 50.1487194 0 98.1487194"></polyline>
                    <polyline fill="#DC3B2A" points="24 75.2230791 0 99.2230791 24 123.223079 24 75.2230791"></polyline>
                    <polyline fill="#3785BA" points="24 174 0 198 24 222 24 174"></polyline>
                    <polyline fill="#81CBD2" points="0 197 24 172.998146 0 149 0 197"></polyline>
                    <polyline fill="#B6D037" points="0 249 24 273.001854 0 297 0 249"></polyline>
                    <polyline fill="#359A46" points="0 199 24 223 0 247 0 199"></polyline>
                    <polyline fill="#7EAA40" points="24 272 0 248 24 224 24 272"></polyline>
                    <polyline fill="#ED962D" points="0.15999201 146.618435 23.425347 123.457042 0.15999201 100.295649 0.15999201 146.618435"></polyline>
                    <polyline fill="#F8CD22" points="24 124 0 147.998146 24 172 24 124"></polyline>
                </g>
            </g>
        </g>
    </g>
</svg>